<mxfile host="app.diagrams.net" agent="Mozilla/5.0 (Windows NT 10.0; Win64; x64) AppleWebKit/537.36 (KHTML, like Gecko) Chrome/140.0.0.0 Safari/537.36" version="28.2.5">
  <diagram name="Página-1" id="0-t6j00emDG_r2iT3FDv">
    <mxGraphModel dx="1665" dy="777" grid="1" gridSize="10" guides="1" tooltips="1" connect="1" arrows="1" fold="1" page="1" pageScale="1" pageWidth="827" pageHeight="1169" math="0" shadow="0">
      <root>
        <mxCell id="0" />
        <mxCell id="1" parent="0" />
        <mxCell id="h7b07M8csWCD6QeXF6k1-6" value="" style="edgeStyle=orthogonalEdgeStyle;rounded=0;orthogonalLoop=1;jettySize=auto;html=1;" edge="1" parent="1" source="h7b07M8csWCD6QeXF6k1-1" target="h7b07M8csWCD6QeXF6k1-2">
          <mxGeometry relative="1" as="geometry" />
        </mxCell>
        <mxCell id="h7b07M8csWCD6QeXF6k1-1" value="Início" style="ellipse;whiteSpace=wrap;html=1;" vertex="1" parent="1">
          <mxGeometry x="320" width="120" height="80" as="geometry" />
        </mxCell>
        <mxCell id="h7b07M8csWCD6QeXF6k1-7" value="" style="edgeStyle=orthogonalEdgeStyle;rounded=0;orthogonalLoop=1;jettySize=auto;html=1;" edge="1" parent="1" source="h7b07M8csWCD6QeXF6k1-2" target="h7b07M8csWCD6QeXF6k1-3">
          <mxGeometry relative="1" as="geometry" />
        </mxCell>
        <mxCell id="h7b07M8csWCD6QeXF6k1-2" value="Ler n" style="shape=parallelogram;perimeter=parallelogramPerimeter;whiteSpace=wrap;html=1;fixedSize=1;" vertex="1" parent="1">
          <mxGeometry x="320" y="120" width="120" height="60" as="geometry" />
        </mxCell>
        <mxCell id="h7b07M8csWCD6QeXF6k1-5" value="Sim" style="edgeStyle=orthogonalEdgeStyle;rounded=0;orthogonalLoop=1;jettySize=auto;html=1;" edge="1" parent="1" source="h7b07M8csWCD6QeXF6k1-3" target="h7b07M8csWCD6QeXF6k1-4">
          <mxGeometry relative="1" as="geometry" />
        </mxCell>
        <mxCell id="h7b07M8csWCD6QeXF6k1-9" value="" style="edgeStyle=orthogonalEdgeStyle;rounded=0;orthogonalLoop=1;jettySize=auto;html=1;" edge="1" parent="1" target="h7b07M8csWCD6QeXF6k1-8">
          <mxGeometry relative="1" as="geometry">
            <mxPoint x="190" y="230" as="sourcePoint" />
          </mxGeometry>
        </mxCell>
        <mxCell id="h7b07M8csWCD6QeXF6k1-10" value="Não" style="edgeStyle=orthogonalEdgeStyle;rounded=0;orthogonalLoop=1;jettySize=auto;html=1;" edge="1" parent="1" source="h7b07M8csWCD6QeXF6k1-3" target="h7b07M8csWCD6QeXF6k1-8">
          <mxGeometry relative="1" as="geometry" />
        </mxCell>
        <mxCell id="h7b07M8csWCD6QeXF6k1-12" value="" style="edgeStyle=orthogonalEdgeStyle;rounded=0;orthogonalLoop=1;jettySize=auto;html=1;" edge="1" parent="1" source="h7b07M8csWCD6QeXF6k1-3" target="h7b07M8csWCD6QeXF6k1-11">
          <mxGeometry relative="1" as="geometry" />
        </mxCell>
        <mxCell id="h7b07M8csWCD6QeXF6k1-3" value="num % 2 == 0" style="rhombus;whiteSpace=wrap;html=1;" vertex="1" parent="1">
          <mxGeometry x="340" y="210" width="80" height="80" as="geometry" />
        </mxCell>
        <mxCell id="h7b07M8csWCD6QeXF6k1-4" value="É par" style="shape=parallelogram;perimeter=parallelogramPerimeter;whiteSpace=wrap;html=1;fixedSize=1;" vertex="1" parent="1">
          <mxGeometry x="500" y="230" width="140" height="40" as="geometry" />
        </mxCell>
        <mxCell id="h7b07M8csWCD6QeXF6k1-8" value="É impar" style="shape=parallelogram;perimeter=parallelogramPerimeter;whiteSpace=wrap;html=1;fixedSize=1;" vertex="1" parent="1">
          <mxGeometry x="150" y="220" width="120" height="60" as="geometry" />
        </mxCell>
        <mxCell id="h7b07M8csWCD6QeXF6k1-15" value="" style="edgeStyle=orthogonalEdgeStyle;rounded=0;orthogonalLoop=1;jettySize=auto;html=1;entryX=0.5;entryY=0;entryDx=0;entryDy=0;" edge="1" parent="1" source="h7b07M8csWCD6QeXF6k1-11" target="h7b07M8csWCD6QeXF6k1-13">
          <mxGeometry relative="1" as="geometry">
            <mxPoint x="380" y="540" as="targetPoint" />
          </mxGeometry>
        </mxCell>
        <mxCell id="h7b07M8csWCD6QeXF6k1-11" value="N == 0" style="rhombus;whiteSpace=wrap;html=1;" vertex="1" parent="1">
          <mxGeometry x="340" y="370" width="80" height="80" as="geometry" />
        </mxCell>
        <mxCell id="h7b07M8csWCD6QeXF6k1-13" value="Fim" style="ellipse;whiteSpace=wrap;html=1;" vertex="1" parent="1">
          <mxGeometry x="320" y="570" width="120" height="80" as="geometry" />
        </mxCell>
      </root>
    </mxGraphModel>
  </diagram>
</mxfile>
